<?xml version="1.0" standalone="no"?>
<!DOCTYPE svg PUBLIC "-//W3C//DTD SVG 20010904//EN"
 "http://www.w3.org/TR/2001/REC-SVG-20010904/DTD/svg10.dtd">
<svg version="1.0" xmlns="http://www.w3.org/2000/svg"
 width="800.000000pt" height="800.000000pt" viewBox="0 0 800.000000 800.000000"
 preserveAspectRatio="xMidYMid meet">
<metadata>
Created by potrace 1.14, written by Peter Selinger 2001-2017
</metadata>
<g transform="translate(0.000000,800.000000) scale(0.100000,-0.100000)"
fill="#000000" stroke="none">
<path d="M0 4000 l0 -4000 4000 0 4000 0 0 4000 0 4000 -4000 0 -4000 0 0
-4000z m5440 3673 c284 -301 459 -690 531 -1183 7 -47 13 -184 13 -305 l1
-220 53 -92 c140 -244 244 -534 318 -892 66 -318 184 -619 329 -841 78 -118
165 -200 282 -266 46 -25 83 -51 83 -56 0 -20 -130 -176 -205 -246 -77 -72
-135 -106 -236 -137 l-57 -18 -10 -96 c-18 -153 -96 -387 -201 -601 -89 -182
-251 -385 -369 -463 -78 -53 -279 -149 -301 -145 -16 3 -17 43 -2 164 l7 60
-261 -260 c-245 -246 -313 -309 -522 -483 -254 -211 -500 -511 -658 -802 -75
-137 -107 -225 -156 -429 -24 -100 -38 -141 -47 -140 -8 2 -51 75 -96 163
-107 208 -282 499 -409 680 -260 370 -441 590 -567 690 -51 40 -408 395 -497
494 l-40 44 23 -148 c13 -82 22 -150 21 -151 -1 -2 -42 22 -90 52 -48 30 -90
54 -93 54 -3 0 -26 14 -52 32 -217 148 -449 400 -574 623 -50 88 -100 198
-130 284 -20 60 -58 265 -58 318 0 24 -5 33 -22 39 -45 13 -174 79 -228 115
-107 72 -240 235 -240 294 0 13 18 36 46 59 98 82 238 223 279 281 135 191
192 353 240 684 14 101 34 185 105 456 43 163 131 372 215 510 l37 60 -27 98
c-88 327 -67 719 54 1019 99 246 234 455 444 682 l64 69 29 -27 c45 -43 280
-196 374 -245 47 -24 145 -80 218 -124 159 -96 256 -191 318 -311 27 -53 44
-74 54 -71 50 15 339 35 507 35 176 0 386 -18 413 -35 5 -3 24 25 42 62 47 98
174 223 293 289 277 155 487 303 580 407 32 37 64 67 71 67 7 0 53 -44 104
-97z"/>
<path d="M5265 7538 c-81 -69 -258 -188 -465 -312 -109 -65 -162 -104 -211
-155 -69 -71 -125 -169 -136 -237 -5 -31 -9 -35 -27 -29 -12 3 -64 16 -116 28
-85 19 -126 21 -375 22 -273 0 -399 -9 -543 -39 l-62 -13 -7 26 c-10 43 -59
147 -91 193 -71 102 -131 147 -402 298 -102 56 -229 131 -283 167 -54 35 -102
63 -107 61 -15 -5 -148 -170 -205 -254 -138 -203 -222 -400 -272 -634 -14 -66
-18 -128 -18 -275 1 -204 15 -298 71 -476 l25 -80 -41 -52 c-129 -160 -286
-624 -340 -1001 -34 -237 -73 -373 -153 -531 -65 -131 -113 -193 -253 -331
l-133 -132 28 -38 c69 -96 193 -181 351 -241 l85 -32 7 -103 c20 -317 176
-638 441 -909 76 -78 254 -229 269 -229 2 0 2 79 0 175 -3 96 -2 181 2 190 4
12 17 2 53 -42 120 -150 272 -309 551 -582 167 -163 334 -333 372 -377 172
-204 465 -626 629 -908 44 -76 82 -141 84 -143 3 -2 19 38 36 89 110 318 423
738 769 1034 416 357 829 774 984 994 17 24 17 17 15 -168 -1 -123 2 -192 8
-192 27 0 123 68 188 133 227 228 411 652 443 1020 l6 77 32 0 c49 0 128 25
194 60 57 30 202 165 202 188 0 5 -30 32 -67 59 -250 182 -455 600 -583 1188
-38 178 -71 292 -121 430 -47 126 -150 342 -205 429 l-37 59 2 216 c2 226 -11
367 -49 543 -51 232 -178 528 -302 700 -70 97 -156 198 -166 197 -4 0 -38 -28
-77 -61z m130 -348 c96 -144 166 -334 207 -555 18 -103 22 -161 23 -405 2
-237 5 -295 19 -344 20 -68 77 -186 112 -232 37 -48 148 -288 192 -415 40
-115 82 -269 137 -499 85 -353 264 -736 423 -900 l53 -55 -21 -17 c-12 -10
-38 -22 -58 -28 -45 -12 -183 -13 -233 -1 l-37 8 -5 -211 c-4 -184 -8 -224
-30 -313 -32 -125 -93 -281 -154 -393 l-47 -85 -18 73 c-27 112 -121 275 -135
236 -9 -26 -108 -166 -188 -266 -246 -309 -621 -679 -1040 -1028 -110 -92
-224 -187 -254 -213 -30 -25 -58 -44 -63 -41 -5 4 -82 104 -170 223 -222 298
-377 491 -475 590 -45 47 -81 86 -80 86 1 1 69 -3 151 -9 265 -18 508 16 628
88 70 42 144 140 218 291 108 218 150 389 150 605 0 70 -3 136 -7 146 -4 10
-21 -41 -43 -132 -20 -82 -52 -184 -70 -227 -33 -79 -94 -168 -128 -186 -18
-9 -19 -4 -25 88 -10 152 -34 203 -114 242 -44 22 -63 24 -247 27 -178 3 -338
-6 -405 -24 -22 -7 -23 -5 -16 27 28 128 171 247 355 296 46 12 103 17 191 16
l127 0 6 51 c9 81 7 287 -5 352 -14 82 -35 144 -85 254 -50 110 -61 174 -44
253 17 83 44 116 132 161 74 37 79 39 164 36 201 -8 226 -6 277 20 50 25 137
112 197 195 37 51 96 90 123 79 24 -9 31 -68 19 -160 -26 -197 -113 -331 -302
-466 -41 -29 -114 -73 -161 -97 l-87 -43 38 -77 c45 -89 78 -207 87 -308 3
-40 9 -73 12 -73 3 0 21 27 39 59 36 63 193 240 281 318 98 86 228 242 270
322 108 207 164 448 164 701 0 393 -147 720 -444 992 -117 107 -144 151 -144
238 0 62 4 73 82 220 45 85 98 198 119 250 21 52 50 113 65 135 47 68 203 210
220 199 4 -2 28 -36 54 -74z m-2808 -22 c209 -177 318 -346 357 -557 32 -168
17 -246 -56 -291 -67 -41 -140 -19 -214 63 -46 51 -122 196 -145 275 -7 23
-16 42 -20 42 -12 0 -22 -165 -14 -233 3 -33 13 -77 21 -95 19 -46 19 -45 -23
-23 -37 19 -77 62 -102 109 -19 36 -28 26 -35 -43 -7 -74 6 -173 34 -254 25
-70 25 -108 0 -149 -35 -58 -91 -64 -130 -15 -51 65 -100 329 -100 538 0 252
102 505 262 650 34 30 66 55 71 55 5 0 48 -32 94 -72z m643 -1783 c101 -36
250 -157 290 -236 40 -78 31 -163 -21 -201 -41 -31 -79 -8 -176 109 -68 82
-187 127 -365 139 -114 8 -155 23 -164 60 -12 47 6 77 66 106 30 15 80 32 110
37 69 12 208 4 260 -14z m1605 11 c79 -20 115 -44 131 -83 13 -31 13 -38 0
-59 -25 -37 -47 -43 -175 -54 -182 -15 -313 -68 -361 -145 -28 -45 -94 -103
-126 -111 -72 -18 -110 114 -61 212 43 85 183 198 290 235 64 22 228 25 302 5z
m-35 -316 c15 -15 20 -33 20 -75 0 -47 -4 -59 -32 -91 -70 -79 -181 -85 -232
-12 -39 56 0 114 47 70 55 -52 118 -46 146 12 11 23 11 36 2 61 -6 17 -11 37
-11 43 0 19 38 14 60 -8z m-1744 -22 c-19 -66 -18 -84 6 -113 32 -37 75 -38
123 -1 43 33 75 28 75 -12 0 -85 -114 -129 -202 -80 -54 31 -82 79 -81 142 1
54 25 86 65 86 16 0 19 -4 14 -22z m-300 -19 c21 -12 61 -61 100 -120 80 -123
104 -145 174 -166 47 -14 67 -14 136 -5 148 22 231 10 300 -43 75 -58 97 -172
50 -270 -52 -110 -111 -140 -276 -140 -94 0 -127 4 -182 23 -146 51 -251 147
-323 296 -85 178 -109 366 -54 425 25 26 33 26 75 0z m-371 -186 c-25 -60 -78
-243 -99 -342 -48 -225 -61 -352 -61 -589 l0 -223 -50 -24 c-66 -33 -178 -47
-275 -34 -120 15 -218 53 -309 119 l-45 33 35 17 c82 43 160 140 238 297 44
90 64 137 149 363 72 191 274 398 391 400 28 0 32 -3 26 -17z m392 -658 c90
-116 190 -223 251 -269 l48 -37 -8 -62 c-4 -34 -10 -141 -14 -237 -13 -342 34
-618 136 -807 l28 -52 -34 25 c-69 53 -230 243 -321 379 -143 214 -238 450
-293 730 -25 123 -38 419 -25 568 l7 86 77 -117 c43 -64 110 -157 148 -207z"/>
</g>
</svg>
